<?xml version="1.0" encoding="UTF-8"?>
<!DOCTYPE svg PUBLIC "-//W3C//DTD SVG 1.1//EN" "http://www.w3.org/Graphics/SVG/1.1/DTD/svg11.dtd">
<svg xmlns="http://www.w3.org/2000/svg" version="1.1" width="512px" height="512px" style="shape-rendering:geometricPrecision; text-rendering:geometricPrecision; image-rendering:optimizeQuality; fill-rule:evenodd; clip-rule:evenodd" xmlns:xlink="http://www.w3.org/1999/xlink">
<g><path style="opacity:1" fill="#aae1fe" d="M -0.5,-0.5 C 170.167,-0.5 340.833,-0.5 511.5,-0.5C 511.5,170.167 511.5,340.833 511.5,511.5C 340.833,511.5 170.167,511.5 -0.5,511.5C -0.5,340.833 -0.5,170.167 -0.5,-0.5 Z"/></g>
<g><path style="opacity:1" fill="#1f2020" d="M 287.5,298.5 C 286.276,293.961 284.609,289.628 282.5,285.5C 314.835,285.667 347.168,285.5 379.5,285C 400.027,282.472 414.193,271.639 422,252.5C 428.674,226.5 420.841,206.334 398.5,192C 393.833,190.333 389.167,188.667 384.5,187C 377.842,186.5 371.175,186.334 364.5,186.5C 362.91,186.372 361.577,185.705 360.5,184.5C 351.985,167.323 338.152,157.99 319,156.5C 312.526,157.665 306.026,158.165 299.5,158C 285.104,116.123 255.77,97.4562 211.5,102C 173.877,113.77 155.544,139.27 156.5,178.5C 156.547,181.295 156.047,183.961 155,186.5C 145.577,187.32 136.077,187.82 126.5,188C 105.489,193.679 92.6558,207.179 88,228.5C 86.3732,251.29 95.2065,268.79 114.5,281C 118.167,282 121.833,283 125.5,284C 139.126,285.362 152.792,285.862 166.5,285.5C 163.571,289.694 160.905,294.027 158.5,298.5C 146.794,298.801 135.127,298.301 123.5,297C 96.8556,289.353 81.0223,271.853 76,244.5C 73.162,211.665 86.9954,189.165 117.5,177C 125.696,174.883 134.029,174.05 142.5,174.5C 144.948,128.715 168.281,100.215 212.5,89C 257.983,83.8964 289.649,102.23 307.5,144C 327.103,142.091 344.436,147.424 359.5,160C 363.697,164.224 367.03,169.058 369.5,174.5C 398.71,171.862 419.543,183.862 432,210.5C 442.321,238.703 436.821,263.203 415.5,284C 404.861,292.212 392.861,296.879 379.5,298C 348.835,298.5 318.168,298.667 287.5,298.5 Z"/></g>
<g><path style="opacity:1" fill="#d7e9f5" d="M 364.5,186.5 C 370.346,187.167 376.346,187.833 382.5,188.5C 405.726,207.836 411.226,231.502 399,259.5C 396.163,262.518 393.829,265.851 392,269.5C 385.029,276.377 376.863,281.21 367.5,284C 338.835,284.5 310.169,284.667 281.5,284.5C 269.774,263.206 251.607,252.206 227,251.5C 211.522,251.438 197.689,255.938 185.5,265C 179.261,272.027 172.927,278.861 166.5,285.5C 152.792,285.862 139.126,285.362 125.5,284C 121.833,283 118.167,282 114.5,281C 95.2065,268.79 86.3732,251.29 88,228.5C 92.6558,207.179 105.489,193.679 126.5,188C 136.077,187.82 145.577,187.32 155,186.5C 156.047,183.961 156.547,181.295 156.5,178.5C 155.544,139.27 173.877,113.77 211.5,102C 255.77,97.4562 285.104,116.123 299.5,158C 306.026,158.165 312.526,157.665 319,156.5C 338.152,157.99 351.985,167.323 360.5,184.5C 361.577,185.705 362.91,186.372 364.5,186.5 Z"/></g>
<g><path style="opacity:1" fill="#fefffe" d="M 173.5,166.5 C 182.147,167.623 185.314,172.29 183,180.5C 175.097,187.649 169.264,186.149 165.5,176C 166.606,171.403 169.273,168.236 173.5,166.5 Z"/></g>
<g><path style="opacity:1" fill="#fefffe" d="M 313.5,162.5 C 322.147,163.623 325.314,168.29 323,176.5C 315.097,183.649 309.264,182.149 305.5,172C 306.606,167.403 309.273,164.236 313.5,162.5 Z"/></g>
<g><path style="opacity:1" fill="#fefffe" d="M 188.5,124.5 C 197.147,125.623 200.314,130.29 198,138.5C 190.097,145.649 184.264,144.149 180.5,134C 181.606,129.403 184.273,126.236 188.5,124.5 Z"/></g>
<g><path style="opacity:1" fill="#fefffe" d="M 223.5,108.5 C 232.147,109.623 235.314,114.29 233,122.5C 225.097,129.649 219.264,128.149 215.5,118C 216.606,113.403 219.273,110.236 223.5,108.5 Z"/></g>
<g><path style="opacity:1" fill="#fefffe" d="M 276.5,182.5 C 285.147,183.623 288.314,188.29 286,196.5C 278.097,203.649 272.264,202.149 268.5,192C 269.606,187.403 272.273,184.236 276.5,182.5 Z"/></g>
<g><path style="opacity:1" fill="#fefffe" d="M 134.5,193.5 C 143.147,194.623 146.314,199.29 144,207.5C 136.097,214.649 130.264,213.149 126.5,203C 127.606,198.403 130.273,195.236 134.5,193.5 Z"/></g>
<g><path style="opacity:1" fill="#fefffe" d="M 103.5,211.5 C 112.147,212.623 115.314,217.29 113,225.5C 109.68,229.943 105.514,231.109 100.5,229C 92.7555,222.045 93.7555,216.212 103.5,211.5 Z"/></g>
<g><path style="opacity:1" fill="#a8cadd" d="M 364.5,186.5 C 371.175,186.334 377.842,186.5 384.5,187C 389.167,188.667 393.833,190.333 398.5,192C 420.841,206.334 428.674,226.5 422,252.5C 414.193,271.639 400.027,282.472 379.5,285C 347.168,285.5 314.835,285.667 282.5,285.5C 281.833,285.5 281.5,285.167 281.5,284.5C 310.169,284.667 338.835,284.5 367.5,284C 376.863,281.21 385.029,276.377 392,269.5C 393.829,265.851 396.163,262.518 399,259.5C 411.226,231.502 405.726,207.836 382.5,188.5C 376.346,187.833 370.346,187.167 364.5,186.5 Z"/></g>
<g><path style="opacity:1" fill="#fefffe" d="M 335.5,219.5 C 344.147,220.623 347.314,225.29 345,233.5C 337.097,240.649 331.264,239.149 327.5,229C 328.606,224.403 331.273,221.236 335.5,219.5 Z"/></g>
<g><path style="opacity:1" fill="#0b4b80" d="M 281.5,284.5 C 281.5,285.167 281.833,285.5 282.5,285.5C 284.609,289.628 286.276,293.961 287.5,298.5C 287.408,305.585 287.408,312.918 287.5,320.5C 286.215,323.589 285.549,326.922 285.5,330.5C 280.56,346.911 270.56,359.077 255.5,367C 250.441,369.603 245.107,371.603 239.5,373C 225.149,375.225 210.816,377.558 196.5,380C 190.266,382.618 183.932,384.951 177.5,387C 164.963,395.546 154.297,406.046 145.5,418.5C 139.435,421.721 135.269,420.054 133,413.5C 132.236,383.027 136.569,353.36 146,324.5C 149.376,315.416 153.543,306.749 158.5,298.5C 160.905,294.027 163.571,289.694 166.5,285.5C 172.927,278.861 179.261,272.027 185.5,265C 197.689,255.938 211.522,251.438 227,251.5C 251.607,252.206 269.774,263.206 281.5,284.5 Z"/></g>
<g><path style="opacity:1" fill="#128ad5" d="M 224.5,265.5 C 249.288,265.778 265.455,277.778 273,301.5C 275.718,327.24 265.552,345.74 242.5,357C 226.951,360.777 211.284,363.777 195.5,366C 179.609,371.074 165.276,378.908 152.5,389.5C 161.568,373.944 174.568,362.778 191.5,356C 203.114,351.181 214.781,346.514 226.5,342C 246.475,329.537 253.975,311.704 249,288.5C 246.292,281.235 241.792,275.401 235.5,271C 231.741,269.121 228.075,267.287 224.5,265.5 Z"/></g>
<g><path style="opacity:1" fill="#33aded" d="M 224.5,265.5 C 228.075,267.287 231.741,269.121 235.5,271C 241.792,275.401 246.292,281.235 249,288.5C 253.975,311.704 246.475,329.537 226.5,342C 214.781,346.514 203.114,351.181 191.5,356C 174.568,362.778 161.568,373.944 152.5,389.5C 150.882,391.785 148.882,393.785 146.5,395.5C 145.084,356.937 155.251,321.937 177,290.5C 186.127,279.017 197.627,271.183 211.5,267C 215.77,265.925 220.103,265.425 224.5,265.5 Z"/></g>
<g><path style="opacity:1" fill="#f2f5f8" d="M 185.5,292.5 C 193.868,291.061 197.368,294.395 196,302.5C 189.667,311.5 183.333,320.5 177,329.5C 172.681,336.471 169.181,343.804 166.5,351.5C 159.229,351.365 156.729,347.698 159,340.5C 165.007,322.81 173.84,306.81 185.5,292.5 Z"/></g>
<g><path style="opacity:1" fill="#638eb0" d="M 287.5,320.5 C 287.841,324.16 287.175,327.493 285.5,330.5C 285.549,326.922 286.215,323.589 287.5,320.5 Z"/></g>
</svg>
